<svg width="33" height="25" viewBox="0 0 33 25" fill="none" xmlns="http://www.w3.org/2000/svg">
<g id="Group">
<path id="Vector" d="M24.6292 23.7838L23.0006 18.3931C24.1576 18.1798 25.219 17.6071 26.0354 16.7556C26.5034 16.2184 26.8599 15.5925 27.084 14.9148C27.3081 14.2371 27.3953 13.5213 27.3403 12.8092C27.3984 11.5494 26.9953 10.3119 26.2073 9.33072C25.8817 8.91163 25.4659 8.57218 24.9911 8.33788C24.5163 8.10359 23.9948 7.98053 23.4659 7.97797C21.5911 7.97797 20.4345 9.09 19.9961 11.3141L19.1666 15.6063C18.793 18.0346 17.6298 20.27 15.8587 21.9632C14.2864 23.4336 12.2093 24.2354 10.0623 24.2008C8.80547 24.1955 7.56428 23.9206 6.42163 23.3944C5.27898 22.8682 4.2612 22.1029 3.4363 21.1495C1.47368 18.9137 0.466848 15.99 0.634175 13.0126C0.615172 11.2245 0.913192 9.44735 1.51426 7.76438C2.00399 6.34963 2.79847 5.06112 3.84094 3.99091C4.72834 3.09094 5.7528 2.33902 6.87573 1.76344C7.92117 1.22281 9.05582 0.878146 10.2241 0.746338L11.8123 6.37094C10.2524 6.4729 8.78708 7.15875 7.70524 8.29327C6.54264 9.60596 5.94593 11.329 6.04622 13.0838C5.96237 14.3874 6.31883 15.6812 7.05781 16.7556C7.37255 17.1833 7.78503 17.5286 8.26041 17.7622C8.7358 17.9959 9.26013 18.1111 9.78912 18.0982C10.2241 18.0983 10.6545 18.008 11.0531 17.833C11.4517 17.658 11.8101 17.402 12.1057 17.0811C12.8126 16.3169 13.2744 15.3564 13.4309 14.3247L14.311 10.0325C14.6904 7.79751 15.7508 5.73616 17.3458 4.1333C18.889 2.68398 20.9405 1.90862 23.0512 1.97704C24.3507 1.96371 25.6369 2.2416 26.8162 2.79052C27.9956 3.33943 29.0385 4.14558 29.8693 5.15041C31.7186 7.25993 32.6989 9.99865 32.6107 12.8092C32.6305 14.4171 32.3774 16.0165 31.8622 17.5388C31.4401 18.7869 30.7492 19.926 29.839 20.8749C29.0987 21.6475 28.246 22.3026 27.31 22.8176C26.4651 23.2627 25.5629 23.5879 24.6292 23.7838Z" fill="#4E34E3"/>
<path id="Vector_2" d="M27.0696 21.2255C27.1111 19.4284 25.6958 17.9378 23.9085 17.8961C22.1212 17.8543 20.6386 19.2773 20.5971 21.0744C20.5556 22.8714 21.9709 24.3621 23.7582 24.4038C25.5455 24.4455 27.0281 23.0225 27.0696 21.2255Z" fill="#FF7084"/>
<path id="Vector_3" d="M13.0413 3.90491C13.0828 2.10785 11.6675 0.617227 9.88016 0.575504C8.09284 0.533782 6.61028 1.95676 6.56879 3.75382C6.52729 5.55088 7.94256 7.04151 9.72989 7.08324C11.5172 7.12496 12.9998 5.70198 13.0413 3.90491Z" fill="#00D09D"/>
</g>
</svg>
