<svg width="96" height="96" viewBox="0 0 96 96" fill="none" xmlns="http://www.w3.org/2000/svg">
<path d="M11.4957 33.5298C20.7148 20.4194 36.9984 12 56.9219 12C75.6131 12.0001 100.642 24.4531 87.5692 50.086C80.9134 63.1404 56.8149 56.5881 47.2813 57.6906C29.1321 57.6906 29.0201 84 19.4235 84C-0.500046 84 3.15778 45.3871 11.4957 33.5298Z" fill="#F6F6FB"/>
<path d="M32.5425 54.1925L81.2835 17.8187L17.6368 40.1545C17.2353 40.294 16.8809 40.5439 16.6142 40.8757C16.3475 41.2074 16.1791 41.6076 16.1283 42.0307C16.0775 42.4538 16.1462 42.8827 16.3268 43.2684C16.5073 43.6542 16.7924 43.9813 17.1494 44.2125L32.5425 54.1925ZM45.0111 59.8759L83.5505 17.8187L66.3438 70.663C66.2293 70.9904 66.0416 71.2872 65.795 71.5306C65.5485 71.7741 65.2496 71.9577 64.9214 72.0674C64.5932 72.1771 64.2443 72.21 63.9014 72.1636C63.5585 72.1172 63.2308 71.9928 62.9433 71.7997L45.0111 59.8759Z" fill="#DCE0ED"/>
<path d="M32.5421 54.1934L76.7491 22.3663L43.1745 60.8998L39.3432 74.6537L32.5421 54.1934Z" fill="#F6F6FB"/>
<path d="M42.7438 70.1058L43.8773 61.0123L48.4114 63.2857L42.7438 70.1058Z" fill="#DCE0ED"/>
<path d="M83.3128 16.8417C83.0098 16.5468 82.6306 16.3427 82.218 16.2523C81.8054 16.162 81.3759 16.1889 80.9778 16.3302L17.2404 39.0638C16.6524 39.2824 16.1361 39.6598 15.7486 40.1543C15.3611 40.6488 15.1175 41.2411 15.0448 41.8658C14.9721 42.4904 15.073 43.1231 15.3365 43.6938C15.5999 44.2645 16.0156 44.7511 16.5376 45.0996L31.8627 54.8751L37.1109 74.1987C37.259 74.6719 37.5574 75.0835 37.9606 75.3708C38.3637 75.6581 38.8495 75.8053 39.3439 75.79C39.7234 75.785 40.0956 75.6846 40.4263 75.4979C40.757 75.3112 41.0358 75.0443 41.2369 74.7215C41.2877 74.7026 41.3369 74.6798 41.3842 74.6533L49.0241 64.4232L62.2862 72.8119C62.8294 73.1543 63.4582 73.3356 64.0998 73.3348C64.4865 73.3317 64.8698 73.2625 65.2333 73.1302C65.7215 72.9513 66.1624 72.6627 66.522 72.2863C66.8816 71.9099 67.1503 71.4559 67.3076 70.9591L83.8909 19.1719C84.021 18.7681 84.0359 18.3359 83.9337 17.924C83.8315 17.5122 83.6165 17.1373 83.3128 16.8417ZM17.2404 42.0988C17.2644 41.887 17.3472 41.6863 17.4795 41.5194C17.6118 41.3526 17.7882 41.2264 17.9885 41.1553L77.4979 19.979L32.5428 52.6017L17.8072 43.19C17.6182 43.0818 17.4643 42.9214 17.3638 42.7279C17.2633 42.5344 17.2205 42.316 17.2404 42.0988ZM39.3439 73.5167L34.0957 54.1931L74.0067 25.3214L43.0392 59.1035C42.9796 59.1802 42.93 59.2643 42.8918 59.3536C42.8612 59.4045 42.8347 59.4577 42.8124 59.5127L39.3439 73.5167ZM42.7444 68.9699L44.5807 61.6156L47.1085 63.2865L42.7444 68.9699ZM66.9109 64.8097L66.2648 66.9807C65.9815 67.8332 65.7207 68.6289 65.7207 68.6289L65.188 70.3339C65.1353 70.4998 65.0453 70.6513 64.925 70.7768C64.8048 70.9022 64.6573 70.9983 64.4941 71.0576C64.331 71.117 64.1564 71.1379 63.9838 71.1188C63.8113 71.0998 63.6454 71.0412 63.499 70.9478L45.6349 59.6378L80.8644 21.2293L66.9109 64.8097Z" fill="#0B005A"/>
<path d="M29.4704 65.0024L12.4677 77.4263C12.3472 77.5144 12.2451 77.6254 12.1673 77.753C12.0895 77.8807 12.0375 78.0224 12.0144 78.1702C11.9912 78.318 11.9973 78.4688 12.0323 78.6143C12.0673 78.7597 12.1305 78.8967 12.2184 79.0177C12.3062 79.1386 12.4169 79.2409 12.5442 79.3189C12.6715 79.3969 12.8128 79.449 12.9602 79.4723C13.1075 79.4955 13.258 79.4894 13.403 79.4543C13.548 79.4192 13.6847 79.3558 13.8053 79.2677L30.8079 66.8324C30.9285 66.7444 31.0306 66.6333 31.1084 66.5057C31.1862 66.3781 31.2381 66.2363 31.2613 66.0885C31.2845 65.9408 31.2784 65.7899 31.2434 65.6445C31.2084 65.4991 31.1451 65.362 31.0573 65.2411C30.9695 65.1202 30.8588 65.0178 30.7315 64.9398C30.6042 64.8618 30.4629 64.8097 30.3155 64.7865C30.1682 64.7632 30.0177 64.7693 29.8727 64.8044C29.7277 64.8395 29.591 64.9029 29.4704 64.991V65.0024ZM15.4035 69.3331C15.6436 69.334 15.8778 69.2584 16.0723 69.1172L21.7399 64.9683C21.8612 64.8809 21.9641 64.7705 22.0429 64.6433C22.1217 64.5161 22.1747 64.3745 22.1989 64.2267C22.2231 64.079 22.218 63.9279 22.184 63.7821C22.15 63.6362 22.0876 63.4986 22.0006 63.3769C21.9135 63.2553 21.8034 63.152 21.6765 63.073C21.5496 62.994 21.4085 62.9409 21.2611 62.9166C21.1137 62.8923 20.9631 62.8974 20.8176 62.9315C20.6722 62.9657 20.535 63.0282 20.4136 63.1155L14.7461 67.2644C14.5518 67.4054 14.4071 67.6047 14.3329 67.8334C14.2587 68.0622 14.2588 68.3087 14.3331 68.5374C14.4074 68.7661 14.5522 68.9652 14.7466 69.1062C14.941 69.2471 15.175 69.3226 15.4149 69.3218L15.4035 69.3331ZM25.8432 61.9674L28.6769 59.8759C28.7975 59.7879 28.8996 59.6768 28.9774 59.5492C29.0552 59.4216 29.1071 59.2798 29.1303 59.1321C29.1535 58.9843 29.1474 58.8334 29.1124 58.688C29.0774 58.5426 29.0141 58.4055 28.9263 58.2846C28.8385 58.1637 28.7278 58.0613 28.6005 57.9833C28.4732 57.9053 28.3319 57.8532 28.1845 57.83C28.0371 57.8067 27.8867 57.8129 27.7417 57.848C27.5967 57.8831 27.46 57.9464 27.3394 58.0345L24.5056 60.1033C24.3851 60.1913 24.283 60.3024 24.2052 60.43C24.1274 60.5576 24.0754 60.6994 24.0523 60.8472C24.0291 60.9949 24.0352 61.1458 24.0702 61.2912C24.1052 61.4367 24.1684 61.5737 24.2562 61.6946C24.3441 61.8155 24.4548 61.9179 24.5821 61.9959C24.7093 62.0739 24.8507 62.126 24.9981 62.1492C25.1454 62.1725 25.2959 62.1664 25.4409 62.1313C25.5859 62.0962 25.7226 62.0328 25.8432 61.9447V61.9674Z" fill="#0B005A"/>
<path d="M91.2 69.6C91.2 77.5529 84.7529 84 76.8 84C68.8471 84 62.4 77.5529 62.4 69.6C62.4 61.6471 68.8471 55.2 76.8 55.2C84.7529 55.2 91.2 61.6471 91.2 69.6Z" fill="#32D583"/>
<path fill-rule="evenodd" clip-rule="evenodd" d="M76.8 81.6C83.4274 81.6 88.8 76.2274 88.8 69.6C88.8 62.9725 83.4274 57.6 76.8 57.6C70.1726 57.6 64.8 62.9725 64.8 69.6C64.8 76.2274 70.1726 81.6 76.8 81.6ZM76.8 84C84.7529 84 91.2 77.5529 91.2 69.6C91.2 61.6471 84.7529 55.2 76.8 55.2C68.8471 55.2 62.4 61.6471 62.4 69.6C62.4 77.5529 68.8471 84 76.8 84Z" fill="#0B005A"/>
<path d="M82.6635 64.3865L74.5851 72.4649L70.9374 68.8172C70.5043 68.3841 69.8043 68.3841 69.3712 68.8172C68.938 69.2504 68.938 69.9504 69.3712 70.3835L73.8019 74.8143C74.0179 75.0303 74.3015 75.1388 74.5851 75.1388C74.8686 75.1388 75.1522 75.0303 75.3682 74.8143L84.2297 65.9528C84.6629 65.5196 84.6629 64.8196 84.2297 64.3865C83.7966 63.9534 83.0966 63.9534 82.6635 64.3865Z" fill="#F6F6FB"/>
</svg>
