<svg width="171" height="43" viewBox="0 0 171 43" fill="none" xmlns="http://www.w3.org/2000/svg">
<g id="Group 153043">
<path id="Vector" d="M0.616211 27.8526L4.54173 26.4626C4.67347 27.6245 5.23484 28.6938 6.11397 29.4574C7.12327 30.2973 8.4074 30.7274 9.7149 30.6634C10.7101 30.7201 11.6926 30.4155 12.4841 29.8049C12.8022 29.5536 13.059 29.2323 13.2349 28.8656C13.4107 28.4988 13.5008 28.0964 13.4984 27.6891C13.4984 26.2036 12.5449 25.2428 10.638 24.8067L6.8443 23.9379C5.28791 23.658 3.86395 22.876 2.78691 21.7097C1.79222 20.5881 1.2622 19.1249 1.30597 17.6213C1.30626 16.6695 1.5156 15.7296 1.91895 14.869C2.32231 14.0084 2.90969 13.2484 3.63896 12.6436C5.17045 11.2815 7.15541 10.5515 9.19758 10.5994C10.4857 10.5767 11.7673 10.7879 12.9811 11.2229C13.9617 11.5596 14.8485 12.1273 15.5677 12.8787C16.1179 13.4502 16.5949 14.0889 16.9878 14.7798C17.288 15.3532 17.5196 15.9605 17.6775 16.589L13.8433 18.0301C13.78 17.6536 13.671 17.2863 13.5187 16.9365C13.324 16.515 13.0824 16.1173 12.7985 15.7508C12.4263 15.2907 11.9398 14.938 11.3886 14.7287C10.6972 14.4419 9.95532 14.2993 9.20773 14.3096C8.24532 14.2677 7.30067 14.5802 6.55014 15.1887C6.2408 15.4319 5.98922 15.7416 5.81374 16.0953C5.63826 16.4489 5.5433 16.8376 5.53579 17.2329C5.53579 18.657 6.38108 19.5565 8.07166 19.9313L11.6726 20.7183C13.397 21.0208 14.9853 21.8567 16.2169 23.11C17.2758 24.265 17.847 25.79 17.8094 27.362C17.7966 28.2645 17.6 29.1548 17.2319 29.9776C16.8637 30.8004 16.3318 31.5383 15.6691 32.1455C14.8665 32.8874 13.9239 33.4588 12.8975 33.8258C11.871 34.1928 10.7818 34.3479 9.69462 34.2817C7.37964 34.4287 5.09357 33.6997 3.28394 32.2375C1.89889 31.148 0.951412 29.5907 0.616211 27.8526Z" fill="#04132A"/>
<path id="Vector_2" d="M41.1297 11.2943L31.676 20.7284L41.3326 33.6582H35.8754L28.633 23.805L25.5899 26.8713V33.6173H21.2485V0H25.5392V21.1986L35.1349 11.2943H41.1297Z" fill="#04132A"/>
<path id="Vector_3" d="M48.6985 43H43.9412L49.4491 31.1946L39.9346 11.2941H44.915L51.8329 26.728L58.4768 11.2941H63.1327L48.6985 43Z" fill="#04132A"/>
<path id="Vector_4" d="M79.6136 30.6634V30.2954C79.0004 31.4736 78.082 32.4626 76.956 33.1573C75.6961 33.9197 74.246 34.3027 72.7769 34.2612C71.3339 34.315 69.8974 34.0396 68.5748 33.4556C67.2522 32.8715 66.0777 31.9939 65.1389 30.8882C63.1731 28.5152 62.1471 25.4938 62.2582 22.4047C62.1813 19.3642 63.234 16.4044 65.2099 14.1052C66.1372 13.0017 67.2985 12.1221 68.6082 11.5312C69.9179 10.9403 71.3425 10.6533 72.7769 10.6913C74.3279 10.6211 75.8663 11.0006 77.2096 11.785C78.2538 12.4063 79.0772 13.3433 79.5629 14.4629V0H83.8536V29.5186C83.8485 30.8849 83.9264 32.2503 84.0869 33.6071H79.8774C79.7066 32.6352 79.6184 31.6504 79.6136 30.6634ZM66.6909 22.4047C66.6017 24.4691 67.2135 26.5025 68.4254 28.1694C68.9865 28.8991 69.7133 29.4824 70.5447 29.8702C71.3761 30.2579 72.2877 30.4388 73.203 30.3976C74.1012 30.4228 74.9922 30.2297 75.8008 29.8348C76.6094 29.4399 77.3118 28.8546 77.8487 28.1285C79.0707 26.4463 79.6895 24.3957 79.6035 22.3127C79.6992 20.2965 79.0968 18.3093 77.8994 16.6911C77.3443 15.9917 76.6335 15.4338 75.8246 15.0627C75.0158 14.6916 74.1315 14.5176 73.2435 14.5549C72.3385 14.526 71.4391 14.7085 70.6155 15.0879C69.792 15.4673 69.0668 16.0335 68.4964 16.7422C67.245 18.3531 66.6049 20.3608 66.6909 22.4047Z" fill="#04132A"/>
<path id="Vector_5" d="M101.182 11.0697V15.7203C100.558 15.6276 99.9271 15.5798 99.2956 15.5772C95.2382 15.5772 93.2096 17.8701 93.2096 22.456V33.6992H88.8682V11.2945H93.1081V15.199C93.6475 13.8865 94.5741 12.7728 95.7625 12.0086C96.9509 11.2444 98.3436 10.8667 99.7521 10.9266C100.232 10.9268 100.711 10.9747 101.182 11.0697Z" fill="#04132A"/>
<path id="Vector_6" d="M104.64 13.9713C106.809 11.8104 109.735 10.5984 112.785 10.5984C115.835 10.5984 118.762 11.8104 120.93 13.9713C121.995 15.1013 122.827 16.433 123.377 17.8893C123.927 19.3456 124.185 20.8974 124.136 22.4548C124.189 24.0187 123.935 25.5777 123.388 27.0424C122.842 28.5071 122.013 29.8484 120.951 30.9895C118.774 33.1505 115.841 34.3618 112.785 34.3618C109.73 34.3618 106.796 33.1505 104.62 30.9895C102.481 28.6925 101.335 25.6336 101.435 22.4855C101.381 20.9229 101.637 19.3653 102.187 17.9035C102.738 16.4417 103.572 15.105 104.64 13.9713ZM107.866 28.332C108.5 29.0014 109.263 29.5343 110.108 29.8983C110.952 30.2624 111.861 30.4501 112.78 30.4501C113.699 30.4501 114.608 30.2624 115.453 29.8983C116.297 29.5343 117.06 29.0014 117.695 28.332C119.113 26.7189 119.842 24.6067 119.723 22.4548C119.84 20.3155 119.111 18.2168 117.695 16.6186C117.06 15.9491 116.297 15.4163 115.453 15.0522C114.608 14.6882 113.699 14.5005 112.78 14.5005C111.861 14.5005 110.952 14.6882 110.108 15.0522C109.263 15.4163 108.5 15.9491 107.866 16.6186C106.45 18.2168 105.72 20.3155 105.837 22.4548C105.718 24.6067 106.447 26.7189 107.866 28.332Z" fill="#04132A"/>
<path id="Vector_7" d="M131.608 42.4889H127.317V11.294H131.608V14.7794C132.292 13.5635 133.3 12.5649 134.519 11.897C135.903 11.1298 137.464 10.7454 139.043 10.7829C140.46 10.7118 141.875 10.9729 143.176 11.5457C144.477 12.1186 145.628 12.9875 146.539 14.0844C148.386 16.4777 149.325 19.4571 149.186 22.4861C149.302 25.5541 148.311 28.5605 146.397 30.9492C145.476 32.0509 144.317 32.9251 143.009 33.5045C141.701 34.0839 140.278 34.3532 138.85 34.2915C137.341 34.3219 135.848 33.9705 134.509 33.2694C133.326 32.6798 132.324 31.7792 131.608 30.663V42.4889ZM144.794 22.4861C144.873 20.467 144.245 18.4841 143.019 16.885C142.45 16.1659 141.721 15.5915 140.891 15.208C140.061 14.8246 139.154 14.6428 138.241 14.6772C137.33 14.6492 136.425 14.8338 135.596 15.2168C134.767 15.5998 134.037 16.1707 133.464 16.885C132.198 18.4669 131.539 20.455 131.608 22.4861C131.521 24.5428 132.169 26.5627 133.433 28.1793C134.007 28.8935 134.737 29.4644 135.565 29.8474C136.394 30.2304 137.3 30.4151 138.211 30.3871C139.118 30.4158 140.019 30.2313 140.843 29.8481C141.667 29.4649 142.391 28.8935 142.958 28.1793C144.221 26.5611 144.872 24.5432 144.794 22.4861Z" fill="#04132A"/>
<path id="Vector_8" d="M148.728 33.6579L156.975 22.2716L148.992 11.3043H154.246L159.693 19.1643L165.089 11.2941H170.161L162.27 22.2613C162.729 22.8473 164.082 24.7451 166.327 27.9545C168.572 31.1639 169.925 33.0616 170.384 33.6477H165.171L159.45 25.4197L153.932 33.6579H148.728Z" fill="#04132A"/>
</g>
</svg>
